HIERARCHY
ROOT Hips
{
	OFFSET 0.000000 103.266502 0.000000
	CHANNELS 6 Xposition Yposition Zposition Xrotation Yrotation Zrotation 
	JOINT Spine
	{
		OFFSET -0.002400 12.777504 0.315300
		CHANNELS 3 Xrotation Yrotation Zrotation
		JOINT Spine1
		{
			OFFSET -0.002067 5.816869 0.032633
			CHANNELS 3 Xrotation Yrotation Zrotation
			JOINT Spine1_split
			{
				OFFSET -0.002067 5.816869 0.032633
				CHANNELS 3 Xrotation Yrotation Zrotation
				JOINT Spine2
				{
					OFFSET -0.002067 5.816869 0.032633
					CHANNELS 3 Xrotation Yrotation Zrotation
					JOINT Neck
					{
						OFFSET -0.003700 21.199493 -0.826900
						CHANNELS 3 Xrotation Yrotation Zrotation
						JOINT Head
						{
							OFFSET 0.000000 20.442200 4.834800
							CHANNELS 3 Xrotation Yrotation Zrotation
							JOINT HeadTop_End
							{
								OFFSET 0.000000 34.668396 4.968400
								CHANNELS 3 Xrotation Yrotation Zrotation
								End Site
								{
									OFFSET 0.000000 0.000000 0.000000
								}
							}
						}
					}
					JOINT LeftShoulder
					{
						OFFSET 3.288150 8.794197 -1.372250
						CHANNELS 3 Xrotation Yrotation Zrotation
						JOINT LeftShoulder_split
						{
							OFFSET 3.288150 8.794197 -1.372250
							CHANNELS 3 Xrotation Yrotation Zrotation
							JOINT LeftArm
							{
								OFFSET 11.953299 -2.279007 -0.146200
								CHANNELS 3 Xrotation Yrotation Zrotation
								JOINT LeftForeArm
								{
									OFFSET 18.448900 0.000000 0.000000
									CHANNELS 3 Xrotation Yrotation Zrotation
									JOINT LeftHand
									{
										OFFSET 29.527798 0.000000 0.000000
										CHANNELS 3 Xrotation Yrotation Zrotation
										JOINT LeftHandThumb1
										{
											OFFSET 10.739754 -2.369614 9.225399
											CHANNELS 3 Xrotation Yrotation Zrotation
											JOINT LeftHandThumb2
											{
												OFFSET 4.926170 -2.844131 2.844125
												CHANNELS 3 Xrotation Yrotation Zrotation
												JOINT LeftHandThumb3
												{
													OFFSET 4.614891 -2.664413 2.664409
													CHANNELS 3 Xrotation Yrotation Zrotation
													JOINT LeftHandThumb4
													{
														OFFSET 4.432465 -2.559082 2.559083
														CHANNELS 3 Xrotation Yrotation Zrotation
														End Site
														{
															OFFSET 0.000000 0.000000 0.000000
														}
													}
												}
											}
										}
										JOINT LeftHandIndex1
										{
											OFFSET 26.467674 0.187653 6.405298
											CHANNELS 3 Xrotation Yrotation Zrotation
											JOINT LeftHandIndex2
											{
												OFFSET 8.792900 0.000000 0.000000
												CHANNELS 3 Xrotation Yrotation Zrotation
												JOINT LeftHandIndex3
												{
													OFFSET 10.075203 0.000000 0.000000
													CHANNELS 3 Xrotation Yrotation Zrotation
													End Site
													{
														OFFSET 0.000000 0.000000 0.000000
													}
												}
											}
										}
										JOINT LeftHandMiddle1
										{
											OFFSET 25.764404 0.000000 0.000000
											CHANNELS 3 Xrotation Yrotation Zrotation
											JOINT LeftHandMiddle2
											{
												OFFSET 9.393974 0.000000 0.000000
												CHANNELS 3 Xrotation Yrotation Zrotation
												JOINT LeftHandMiddle3
												{
													OFFSET 10.771950 0.000000 0.000000
													CHANNELS 3 Xrotation Yrotation Zrotation
													End Site
													{
														OFFSET 0.000000 0.000000 0.000000
													}
												}
											}
										}
										JOINT LeftHandRing1
										{
											OFFSET 24.660927 0.144547 -6.225808
											CHANNELS 3 Xrotation Yrotation Zrotation
											JOINT LeftHandRing2
											{
												OFFSET 9.393799 0.000000 0.000000
												CHANNELS 3 Xrotation Yrotation Zrotation
												JOINT LeftHandRing3
												{
													OFFSET 9.928497 0.000000 0.000000
													CHANNELS 3 Xrotation Yrotation Zrotation
													End Site
													{
														OFFSET 0.000000 0.000000 0.000000
													}
												}
											}
										}
										JOINT LeftHandPinky1
										{
											OFFSET 23.655350 0.125290 -12.815412
											CHANNELS 3 Xrotation Yrotation Zrotation
											JOINT LeftHandPinky2
											{
												OFFSET 8.425102 0.000000 0.000000
												CHANNELS 3 Xrotation Yrotation Zrotation
												JOINT LeftHandPinky3
												{
													OFFSET 8.147003 0.000000 0.000000
													CHANNELS 3 Xrotation Yrotation Zrotation
													End Site
													{
														OFFSET 0.000000 0.000000 0.000000
													}
												}
											}
										}
									}
								}
							}
						}
					}
					JOINT RightShoulder
					{
						OFFSET -3.249400 8.794197 -1.372250
						CHANNELS 3 Xrotation Yrotation Zrotation
						JOINT RightShoulder_split
						{
							OFFSET -3.249400 8.794197 -1.372250
							CHANNELS 3 Xrotation Yrotation Zrotation
							JOINT RightArm
							{
								OFFSET -11.953299 -2.279007 -0.146200
								CHANNELS 3 Xrotation Yrotation Zrotation
								JOINT RightForeArm
								{
									OFFSET -18.448900 0.000000 0.000000
									CHANNELS 3 Xrotation Yrotation Zrotation
									JOINT RightHand
									{
										OFFSET -29.527802 0.000000 0.000000
										CHANNELS 3 Xrotation Yrotation Zrotation
										JOINT RightHandThumb1
										{
											OFFSET -10.739754 -2.369614 9.225399
											CHANNELS 3 Xrotation Yrotation Zrotation
											JOINT RightHandThumb2
											{
												OFFSET -4.926170 -2.844131 2.844125
												CHANNELS 3 Xrotation Yrotation Zrotation
												JOINT RightHandThumb3
												{
													OFFSET -4.614891 -2.664413 2.664409
													CHANNELS 3 Xrotation Yrotation Zrotation
													JOINT RightHandThumb4
													{
														OFFSET -4.432465 -2.559082 2.559083
														CHANNELS 3 Xrotation Yrotation Zrotation
														End Site
														{
															OFFSET 0.000000 0.000000 0.000000
														}
													}
												}
											}
										}
										JOINT RightHandIndex1
										{
											OFFSET -26.467674 0.187653 6.405298
											CHANNELS 3 Xrotation Yrotation Zrotation
											JOINT RightHandIndex2
											{
												OFFSET -8.792900 0.000000 0.000000
												CHANNELS 3 Xrotation Yrotation Zrotation
												JOINT RightHandIndex3
												{
													OFFSET -10.075203 0.000000 0.000000
													CHANNELS 3 Xrotation Yrotation Zrotation
													End Site
													{
														OFFSET 0.000000 0.000000 0.000000
													}
												}
											}
										}
										JOINT RightHandMiddle1
										{
											OFFSET -25.764404 0.000000 0.000000
											CHANNELS 3 Xrotation Yrotation Zrotation
											JOINT RightHandMiddle2
											{
												OFFSET -9.393974 0.000000 0.000000
												CHANNELS 3 Xrotation Yrotation Zrotation
												JOINT RightHandMiddle3
												{
													OFFSET -10.771950 0.000000 0.000000
													CHANNELS 3 Xrotation Yrotation Zrotation
													End Site
													{
														OFFSET 0.000000 0.000000 0.000000
													}
												}
											}
										}
										JOINT RightHandRing1
										{
											OFFSET -24.660927 0.144547 -6.225808
											CHANNELS 3 Xrotation Yrotation Zrotation
											JOINT RightHandRing2
											{
												OFFSET -9.393799 0.000000 0.000000
												CHANNELS 3 Xrotation Yrotation Zrotation
												JOINT RightHandRing3
												{
													OFFSET -9.928497 0.000000 0.000000
													CHANNELS 3 Xrotation Yrotation Zrotation
													End Site
													{
														OFFSET 0.000000 0.000000 0.000000
													}
												}
											}
										}
										JOINT RightHandPinky1
										{
											OFFSET -23.655350 0.125290 -12.815412
											CHANNELS 3 Xrotation Yrotation Zrotation
											JOINT RightHandPinky2
											{
												OFFSET -8.425102 0.000000 0.000000
												CHANNELS 3 Xrotation Yrotation Zrotation
												JOINT RightHandPinky3
												{
													OFFSET -8.147003 0.000000 0.000000
													CHANNELS 3 Xrotation Yrotation Zrotation
													End Site
													{
														OFFSET 0.000000 0.000000 0.000000
													}
												}
											}
										}
									}
								}
							}
						}
					}
				}
			}
		}
	}
	JOINT LeftUpLeg
	{
		OFFSET 11.394100 -6.187798 -0.413800
		CHANNELS 3 Xrotation Yrotation Zrotation
		JOINT LeftLeg
		{
			OFFSET 0.430247 -32.302673 3.732800
			CHANNELS 3 Xrotation Yrotation Zrotation
			JOINT LeftFoot
			{
				OFFSET -0.430247 -48.264931 -6.423300
				CHANNELS 3 Xrotation Yrotation Zrotation
				JOINT LeftToeBase
				{
					OFFSET 4.230900 -16.068199 23.438400
					CHANNELS 3 Xrotation Yrotation Zrotation
					JOINT LeftToe_End
					{
						OFFSET 4.510700 0.695400 19.974600
						CHANNELS 3 Xrotation Yrotation Zrotation
						End Site
						{
							OFFSET 0.000000 0.000000 0.000000
						}
					}
				}
			}
		}
	}
	JOINT RightUpLeg
	{
		OFFSET -11.333700 -6.187798 -0.413800
		CHANNELS 3 Xrotation Yrotation Zrotation
		JOINT RightLeg
		{
			OFFSET -0.430392 -32.302628 3.733000
			CHANNELS 3 Xrotation Yrotation Zrotation
			JOINT RightFoot
			{
				OFFSET 0.430392 -48.264973 -6.423500
				CHANNELS 3 Xrotation Yrotation Zrotation
				JOINT RightToeBase
				{
					OFFSET -4.230900 -16.068199 23.438400
					CHANNELS 3 Xrotation Yrotation Zrotation
					JOINT RightToe_End
					{
						OFFSET -4.510700 0.695400 19.974600
						CHANNELS 3 Xrotation Yrotation Zrotation
						End Site
						{
							OFFSET 0.000000 0.000000 0.000000
						}
					}
				}
			}
		}
	}
}
MOTION
Frames: 4
Frame Time: 0.016667
66.430061 100.693604 155.175293 -3.472117 42.881762 8.662565 2.638948 -1.113749 -6.784801 -1.325620 -1.163660 0.817525 0.000000 0.000000 0.000000 -1.438975 -1.086679 0.916038 -7.118962 3.300068 1.481925 3.009341 7.256461 -2.336362 -0.000000 -0.000002 -0.000000 1.278785 8.282234 -5.884514 0.000000 0.000000 0.000000 5.487389 -5.716221 -69.262592 10.995042 -23.144448 4.299479 -3.505216 1.553098 -4.566417 10.887900 1.246831 25.518085 -6.107965 25.101698 -7.037448 -9.406640 -1.750305 -3.989121 0.000001 0.000001 -0.000002 2.273938 2.860330 -7.022254 -2.151797 2.437464 -12.915091 -0.000000 -0.000000 -0.000000 -1.975880 5.648608 -12.925032 0.258615 5.087093 -31.070336 0.000000 -0.000000 0.000003 -4.961676 10.079268 -11.366451 4.009606 4.047737 -37.672622 -0.000001 0.000000 -0.000000 -6.453027 11.290884 -20.815901 10.729972 2.574860 -38.101637 0.000002 0.000001 -0.000002 0.653106 6.246609 2.354860 0.000000 0.000000 0.000000 1.709284 -0.054537 76.942081 10.204124 11.314857 -3.125139 0.035614 4.570856 -3.022548 10.804404 -0.128350 -25.394999 -5.935881 -25.377856 7.041885 -8.629354 0.246779 3.587688 -0.000003 0.000004 0.000000 2.290264 -3.071422 7.871198 -2.151268 -2.429197 14.934065 0.000001 -0.000000 -0.000000 -1.974377 -5.650455 14.486242 0.269442 -5.094375 31.329712 0.000001 -0.000001 0.000003 -4.966003 -10.089019 12.710196 4.004650 -4.055502 37.979964 -0.000001 0.000002 0.000006 -6.445515 -11.295041 22.248668 10.719207 -2.567189 37.975179 -0.000001 -0.000001 0.000002 -22.584671 12.089661 -12.700189 37.852509 -10.096624 -0.805644 11.354379 -1.112102 14.040091 -26.770844 0.093844 4.325776 0.000000 0.000002 0.000000 -33.475044 14.903449 1.947393 65.926208 -13.532938 -1.462565 22.382972 -5.332940 -3.709287 -38.196255 -3.034469 16.360352 -0.000000 -0.000001 0.000000 
67.127640 100.959427 156.300766 -3.094572 44.053214 7.795959 3.164617 -1.356915 -6.685971 -1.672385 -1.446832 1.136366 0.000000 0.000000 0.000000 -1.783760 -1.357304 1.239756 -6.992468 3.127438 1.770557 3.081408 7.243104 -2.534714 0.000000 -0.000000 -0.000000 1.222376 7.998275 -5.656145 0.000000 0.000000 0.000000 4.902279 -6.661207 -69.184919 10.630501 -23.193326 4.158784 -3.663194 1.608670 -4.129039 10.909322 1.522092 25.549699 -6.151154 25.034105 -7.036822 -9.599615 -2.120123 -4.091475 -0.000000 0.000001 -0.000000 2.269687 2.808440 -6.812897 -2.151592 2.437661 -12.417642 0.000000 -0.000000 -0.000000 -1.976499 5.649597 -12.540141 0.258745 5.086670 -31.006521 0.000002 0.000000 -0.000002 -4.961854 10.080334 -11.034837 4.009657 4.047392 -37.596800 -0.000003 0.000000 0.000001 -6.453599 11.291856 -20.462845 10.729401 2.575071 -38.132448 0.000001 0.000001 -0.000003 0.631577 5.767208 2.506481 0.000000 0.000000 0.000000 2.266441 -0.402031 76.731301 9.995591 11.382993 -3.177997 0.011984 4.430590 -2.802301 10.782476 0.147468 -25.365094 -5.892657 -25.445480 7.042862 -8.441568 -0.125855 3.492233 -0.000002 0.000003 0.000001 2.295237 -3.123474 8.080468 -2.151247 -2.429911 15.431617 0.000001 0.000000 -0.000000 -1.974497 -5.650708 14.871105 0.269474 -5.094370 31.393503 -0.000002 0.000002 0.000000 -4.966633 -10.089643 13.041865 4.004877 -4.055870 38.055785 -0.000004 0.000000 -0.000001 -6.446280 -11.296312 22.601670 10.719375 -2.567246 37.944409 -0.000001 -0.000001 0.000001 -21.649550 11.938341 -11.949630 37.500006 -10.842700 -0.860250 10.331932 -1.239883 14.240205 -26.393232 0.122224 4.370302 0.000001 -0.000000 0.000000 -35.915235 15.603588 2.937110 64.938392 -13.777261 -1.460704 21.375767 -5.183158 -2.126297 -34.918953 -1.868504 15.073544 0.000000 0.000002 -0.000001 
67.968941 101.269730 157.561554 -2.702173 45.125257 6.771733 3.291126 -1.473585 -6.285916 -1.777615 -1.610059 1.334797 0.000000 0.000000 0.000000 -1.884349 -1.504935 1.444946 -6.959356 2.850364 2.091293 3.091846 7.132211 -2.654660 -0.000000 0.000003 0.000000 1.160516 7.595436 -5.207533 0.000000 0.000000 0.000000 4.128664 -7.551711 -69.228967 10.365311 -23.115710 4.027339 -3.787322 0.679981 -3.598848 10.930319 1.792578 25.581162 -6.193616 24.967745 -7.036317 -9.790359 -2.483160 -4.193428 -0.000002 0.000002 -0.000001 2.265750 2.757448 -6.607043 -2.151408 2.437965 -11.928504 -0.000000 -0.000001 -0.000000 -1.977432 5.650762 -12.161681 0.258682 5.086288 -30.943813 0.000002 0.000001 -0.000001 -4.962414 10.081670 -10.708746 4.009745 4.047082 -37.522290 -0.000001 0.000000 0.000001 -6.454396 11.293232 -20.115798 10.728971 2.575295 -38.162709 0.000000 0.000000 -0.000001 0.551899 5.166423 2.977070 0.000000 0.000000 0.000000 2.826252 -0.847814 76.289894 9.960785 11.547381 -3.248028 0.025186 3.872509 -2.722519 10.760879 0.418747 -25.335991 -5.850200 -25.511986 7.043870 -8.257945 -0.492754 3.399680 -0.000003 -0.000000 -0.000002 2.301338 -3.174562 8.286266 -2.151118 -2.430785 15.920819 0.000002 0.000000 0.000000 -1.974745 -5.651226 15.249521 0.269523 -5.094271 31.456231 0.000002 0.000001 0.000002 -4.967250 -10.090640 13.368001 4.005142 -4.056075 38.130320 -0.000002 -0.000001 0.000001 -6.447199 -11.298472 22.948672 10.719510 -2.567285 37.914127 0.000001 -0.000001 0.000001 -21.291943 11.016544 -11.192310 37.558759 -11.510670 -0.905870 9.870922 -1.224131 14.335158 -26.690474 0.137447 3.563608 -0.000000 0.000002 -0.000000 -37.757197 16.317773 4.058564 63.051990 -13.127466 -1.379529 19.897594 -5.387673 -1.837484 -32.162374 -0.911724 12.611815 0.000000 0.000001 -0.000000 
68.784470 101.685394 158.698853 -2.385278 46.154348 5.867881 3.378388 -1.592619 -5.818219 -1.781113 -1.770527 1.443604 0.000000 0.000000 0.000000 -1.883107 -1.652037 1.562385 -7.063835 2.589940 2.525419 3.065762 7.112179 -2.915455 -0.000001 0.000000 0.000000 1.118780 7.115249 -4.973795 0.000000 0.000000 0.000000 3.357548 -8.132488 -69.115599 10.372757 -23.221340 4.056495 -3.801008 -0.070281 -3.042792 10.950738 2.056795 25.612159 -6.235100 24.902878 -7.035887 -9.977771 -2.837261 -4.294391 -0.000002 0.000001 -0.000000 2.262129 2.707675 -6.405971 -2.152481 2.438503 -11.450575 0.000000 -0.000000 -0.000000 -1.978348 5.652190 -11.792018 0.258149 5.085943 -30.882478 0.000001 0.000000 0.000001 -4.963205 10.083306 -10.390162 4.009822 4.046806 -37.449463 0.000002 0.000001 -0.000002 -6.455428 11.294981 -19.776724 10.728686 2.575521 -38.192335 0.000001 -0.000001 -0.000002 0.499422 4.835790 3.514560 0.000000 0.000000 0.000000 3.199683 -1.335502 75.878634 10.075127 11.516167 -3.432979 -0.002048 3.871209 -2.507601 10.739676 0.683869 -25.307873 -5.808694 -25.576951 7.044979 -8.079429 -0.851715 3.310470 -0.000001 0.000000 -0.000001 2.307815 -3.224467 8.487363 -2.151020 -2.431821 16.398758 -0.000002 0.000001 -0.000000 -1.975077 -5.652003 15.619244 0.269532 -5.094127 31.517508 0.000001 -0.000001 -0.000001 -4.967824 -10.091923 13.686664 4.005383 -4.056324 38.203133 -0.000001 -0.000002 -0.000000 -6.448325 -11.300609 23.287772 10.719651 -2.567332 37.884566 0.000002 -0.000000 -0.000000 -20.370744 10.348919 -10.493902 36.977329 -12.539566 -0.995631 9.548223 -1.238338 14.538350 -27.066728 0.125415 3.305567 -0.000000 -0.000000 -0.000000 -38.105701 17.071967 4.413790 59.423691 -12.191409 -1.218577 18.091400 -5.306387 0.068311 -30.408036 -0.239899 7.858702 0.000000 0.000003 -0.000000 
